<svg width="154" height="64" viewBox="0 0 154 64" fill="none" xmlns="http://www.w3.org/2000/svg">
<path d="M20.1312 64C13.6338 64 8.65427 61.5457 5.19256 56.6372C1.73085 51.7286 0 44.15 0 33.9014C0 28.6692 0.479314 24.2461 1.43794 20.6321C2.44982 17.0181 3.83451 14.0784 5.59199 11.8129C7.34947 9.54741 9.4265 7.9292 11.8231 6.95828C14.2196 5.93342 16.8292 5.42098 19.6518 5.42098C21.9952 5.42098 24.1787 5.74463 26.2025 6.39191C28.2262 6.98525 29.8772 7.74041 31.1554 8.6574L28.9985 14.7257C27.7203 13.8626 26.3356 13.1614 24.8444 12.622C23.4065 12.0826 21.7289 11.8129 19.8116 11.8129C15.5511 11.8129 12.4621 13.6199 10.5449 17.2339C8.62764 20.7939 7.66901 26.3498 7.66901 33.9014C7.66901 41.507 8.6809 47.3595 10.7047 51.4589C12.7284 55.5584 16.0304 57.6081 20.6105 57.6081C22.794 57.6081 24.5515 57.3384 25.8829 56.799C27.2676 56.2596 28.599 55.5584 29.8772 54.6953L31.8743 60.44C30.6494 61.4109 29.0251 62.247 27.0013 62.9482C25.0308 63.6494 22.7408 64 20.1312 64Z" fill="black"/>
<path d="M48.1935 57.7699C51.0693 57.7699 53.2795 56.9608 54.824 55.3426C56.4217 53.7244 57.2205 51.5398 57.2205 48.7889C57.2205 47.3325 56.9809 46.0379 56.5016 44.9052C56.0222 43.7724 55.3832 42.7476 54.5843 41.8306C53.8387 40.9136 52.96 40.0775 51.9481 39.3224C50.9362 38.5672 49.8977 37.8121 48.8325 37.0569C47.6076 36.1938 46.3295 35.2769 44.998 34.3059C43.6666 33.335 42.4417 32.2023 41.3233 30.9077C40.2582 29.6132 39.3794 28.1028 38.6871 26.3767C37.9947 24.6507 37.6486 22.6279 37.6486 20.3085C37.6486 18.043 38.0214 15.9933 38.767 14.1593C39.5658 12.3253 40.631 10.7611 41.9624 9.4665C43.3471 8.17193 44.9714 7.17404 46.8354 6.47282C48.7527 5.77159 50.8031 5.42098 52.9866 5.42098C55.1169 5.42098 57.0874 5.69068 58.8981 6.23008C60.7089 6.76949 62.2267 7.41677 63.4516 8.17194L61.2148 13.9166C60.0964 13.1614 58.8715 12.595 57.5401 12.2174C56.2619 11.7859 54.9038 11.5702 53.4659 11.5702C50.8563 11.5702 48.7527 12.2984 47.1549 13.7547C45.6105 15.1572 44.8383 17.2339 44.8383 19.9848C44.8383 21.4952 45.0779 22.8167 45.5572 23.9494C46.0898 25.0822 46.7555 26.107 47.5544 27.024C48.4065 27.941 49.3651 28.7771 50.4303 29.5322C51.5486 30.2874 52.7203 31.0695 53.9452 31.8786C55.1701 32.6877 56.4217 33.5778 57.6998 34.5487C58.978 35.5196 60.123 36.6523 61.1349 37.9469C62.2001 39.1875 63.0522 40.6709 63.6913 42.397C64.3836 44.0691 64.7298 46.0649 64.7298 48.3843C64.7298 50.488 64.4102 52.4838 63.7711 54.3717C63.132 56.2596 62.1202 57.9317 60.7355 59.3881C59.4041 60.7906 57.6998 61.9233 55.6228 62.7864C53.599 63.5955 51.2025 64 48.4331 64C45.8768 64 43.64 63.7033 41.7227 63.11C39.8055 62.5167 38.1012 61.7345 36.6101 60.7636L38.8468 54.9381C40.2315 55.8011 41.6428 56.5023 43.0808 57.0417C44.572 57.5272 46.2762 57.7699 48.1935 57.7699Z" fill="black"/>
<path d="M101.311 41.5879C101.311 44.9322 101.018 47.9798 100.432 50.7307C99.8465 53.4277 98.9412 55.7472 97.7163 57.689C96.5446 59.6309 95.0268 61.1412 93.1628 62.22C91.352 63.2988 89.1951 63.8382 86.692 63.8382C84.189 63.8382 82.0054 63.2988 80.1414 62.22C78.2774 61.1412 76.733 59.6309 75.5081 57.689C74.3364 55.7472 73.4577 53.4277 72.8718 50.7307C72.286 47.9798 71.9931 44.9322 71.9931 41.5879C71.9931 38.2975 72.286 35.2769 72.8718 32.5259C73.4577 29.775 74.3364 27.4286 75.5081 25.4867C76.733 23.4909 78.2774 21.9536 80.1414 20.8748C82.0054 19.796 84.189 19.2566 86.692 19.2566C89.1951 19.2566 91.352 19.796 93.1628 20.8748C95.0268 21.9536 96.5446 23.4909 97.7163 25.4867C98.9412 27.4286 99.8465 29.775 100.432 32.5259C101.018 35.2769 101.311 38.2975 101.311 41.5879ZM94.1214 41.5879C94.1214 39.2145 93.9883 37.0569 93.722 35.115C93.4557 33.1193 93.0296 31.4201 92.4438 30.0177C91.858 28.5613 91.0858 27.4555 90.1271 26.7004C89.1685 25.8913 88.0235 25.4867 86.692 25.4867C85.3074 25.4867 84.1357 25.8913 83.1771 26.7004C82.2717 27.4555 81.4995 28.5613 80.8604 30.0177C80.2746 31.4201 79.8485 33.1193 79.5822 35.115C79.316 37.0569 79.1828 39.2145 79.1828 41.5879C79.1828 43.9612 79.316 46.1458 79.5822 48.1416C79.8485 50.0834 80.2746 51.7556 80.8604 53.158C81.4995 54.5605 82.2717 55.6663 83.1771 56.4754C84.1357 57.2305 85.3074 57.6081 86.692 57.6081C88.0235 57.6081 89.1685 57.2305 90.1271 56.4754C91.0858 55.6663 91.858 54.5605 92.4438 53.158C93.0296 51.7556 93.4557 50.0834 93.722 48.1416C93.9883 46.1458 94.1214 43.9612 94.1214 41.5879Z" fill="black"/>
<path d="M123.59 0C125.135 0 126.493 0.16182 127.665 0.48546C128.836 0.8091 129.795 1.15971 130.54 1.53729L129.103 7.03919C128.357 6.66161 127.585 6.39191 126.786 6.23008C125.987 6.01433 125.135 5.90645 124.23 5.90645C123.005 5.90645 121.993 6.12221 121.194 6.55373C120.395 6.98525 119.783 7.57859 119.357 8.33375C118.93 9.08891 118.638 10.0059 118.478 11.0847C118.318 12.1096 118.238 13.2153 118.238 14.402V20.3085H129.023V26.2958H118.238V62.7864H111.368V14.402C111.368 9.81711 112.38 6.28403 114.404 3.80278C116.427 1.26759 119.49 0 123.59 0Z" fill="black"/>
<path d="M142.177 20.3085H152.722V26.2958H142.177V49.6789C142.177 52.5917 142.683 54.6414 143.695 55.8281C144.76 56.9608 146.171 57.5272 147.929 57.5272C148.834 57.5272 149.686 57.3923 150.485 57.1226C151.337 56.8529 152.056 56.5293 152.642 56.1517L154 61.7345C151.816 63.0291 149.5 63.6764 147.05 63.6764C143.109 63.6764 140.153 62.5706 138.183 60.359C136.265 58.0936 135.307 54.3717 135.307 49.1934V8.90013L142.177 7.68647V20.3085Z" fill="black"/>
</svg>
