<svg width="154" height="28" viewBox="0 0 154 28" fill="none" xmlns="http://www.w3.org/2000/svg">
<path d="M7.34458 9.61498C6.78991 9.3042 6.19699 9.1488 5.56582 9.1488C5.08765 9.1488 4.66687 9.24592 4.30347 9.44017C3.94006 9.63441 3.62448 9.95491 3.3567 10.4017C3.10806 10.8484 2.91679 11.4409 2.78291 12.179C2.64902 12.9171 2.58208 13.83 2.58208 14.9178C2.58208 17.0156 2.84985 18.521 3.38539 19.4339C3.94006 20.3274 4.77207 20.7742 5.8814 20.7742C6.0918 20.7742 6.32131 20.7645 6.56996 20.7451C6.8186 20.7062 7.07681 20.6479 7.34458 20.5702V9.61498ZM7.34458 0.437044L9.8119 0V22.2019C9.27636 22.435 8.66431 22.6195 7.97576 22.7555C7.2872 22.9109 6.58909 22.9886 5.8814 22.9886C3.81574 22.9886 2.31431 22.3184 1.37711 20.9781C0.459036 19.6379 0 17.6178 0 14.9178C0 13.6941 0.0956326 12.5966 0.286898 11.6254C0.49729 10.6348 0.812877 9.79951 1.23366 9.11967C1.67357 8.42039 2.22824 7.88623 2.89767 7.51717C3.5671 7.12868 4.36085 6.93444 5.27892 6.93444C5.71883 6.93444 6.0918 6.983 6.39782 7.08012C6.72297 7.15782 7.03856 7.27437 7.34458 7.42976V0.437044Z" fill="black"/>
<path d="M17.6671 15.7045C17.6862 16.4426 17.7531 17.1224 17.8679 17.744C17.9827 18.3462 18.1644 18.8803 18.413 19.3465C18.6808 19.7933 19.0251 20.1429 19.4458 20.3954C19.8858 20.6479 20.4404 20.7742 21.1098 20.7742C21.6645 20.7742 22.1714 20.6965 22.6304 20.5411C23.1086 20.3663 23.4528 20.2206 23.6632 20.1041L24.1223 22.1145C23.8736 22.2893 23.4528 22.4738 22.8599 22.6681C22.2861 22.8817 21.5976 22.9886 20.7943 22.9886C19.7423 22.9886 18.8529 22.7943 18.1261 22.4058C17.4184 22.0173 16.8351 21.4735 16.376 20.7742C15.9361 20.0749 15.6205 19.2397 15.4293 18.2685C15.238 17.2973 15.1424 16.2289 15.1424 15.0635C15.1424 12.247 15.6014 10.188 16.5195 8.88658C17.4376 7.58515 18.6521 6.93444 20.1631 6.93444C21.8653 6.93444 23.0703 7.58515 23.778 8.88658C24.4857 10.188 24.8395 12.0139 24.8395 14.3642C24.8395 14.5779 24.8395 14.8012 24.8395 15.0343C24.8395 15.248 24.83 15.4714 24.8108 15.7045H17.6671ZM20.1631 9.06139C19.3406 9.06139 18.7382 9.47901 18.3556 10.3143C17.9922 11.1495 17.7723 12.2664 17.6958 13.6649H22.2574C22.2574 12.247 22.114 11.1301 21.8271 10.3143C21.5402 9.47901 20.9855 9.06139 20.1631 9.06139Z" fill="black"/>
<path d="M33.5516 19.667C33.7811 18.89 34.0202 17.9771 34.2688 16.9282C34.5366 15.8793 34.7948 14.8012 35.0434 13.6941C35.2921 12.5675 35.5216 11.4506 35.732 10.3434C35.9615 9.23621 36.1528 8.22615 36.3058 7.31321H38.7731C38.5245 8.59521 38.228 9.9452 37.8837 11.3632C37.5586 12.7811 37.2143 14.1797 36.8509 15.5588C36.5066 16.9185 36.1528 18.2102 35.7894 19.4339C35.426 20.6576 35.0913 21.7163 34.7852 22.6098H32.2318C31.9258 21.7163 31.5911 20.6576 31.2277 19.4339C30.8643 18.2102 30.5009 16.9185 30.1375 15.5588C29.7932 14.1797 29.4489 12.7811 29.1047 11.3632C28.7795 9.9452 28.4926 8.59521 28.244 7.31321H30.8547C31.0077 8.22615 31.1894 9.23621 31.3998 10.3434C31.6294 11.4506 31.8589 12.5675 32.0884 13.6941C32.337 14.8012 32.5857 15.8793 32.8343 16.9282C33.083 17.9771 33.3221 18.89 33.5516 19.667Z" fill="black"/>
<path d="M44.5884 15.7045C44.6075 16.4426 44.6745 17.1224 44.7892 17.744C44.904 18.3462 45.0857 18.8803 45.3343 19.3465C45.6021 19.7933 45.9464 20.1429 46.3672 20.3954C46.8071 20.6479 47.3617 20.7742 48.0312 20.7742C48.5858 20.7742 49.0927 20.6965 49.5517 20.5411C50.0299 20.3663 50.3742 20.2206 50.5846 20.1041L51.0436 22.1145C50.7949 22.2893 50.3742 22.4738 49.7812 22.6681C49.2074 22.8817 48.5189 22.9886 47.7156 22.9886C46.6636 22.9886 45.7742 22.7943 45.0474 22.4058C44.3397 22.0173 43.7564 21.4735 43.2974 20.7742C42.8574 20.0749 42.5419 19.2397 42.3506 18.2685C42.1593 17.2973 42.0637 16.2289 42.0637 15.0635C42.0637 12.247 42.5227 10.188 43.4408 8.88658C44.3589 7.58515 45.5734 6.93444 47.0844 6.93444C48.7867 6.93444 49.9916 7.58515 50.6993 8.88658C51.407 10.188 51.7608 12.0139 51.7608 14.3642C51.7608 14.5779 51.7608 14.8012 51.7608 15.0343C51.7608 15.248 51.7513 15.4714 51.7321 15.7045H44.5884ZM47.0844 9.06139C46.262 9.06139 45.6595 9.47901 45.2769 10.3143C44.9135 11.1495 44.6936 12.2664 44.6171 13.6649H49.1788C49.1788 12.247 49.0353 11.1301 48.7484 10.3143C48.4615 9.47901 47.9068 9.06139 47.0844 9.06139Z" fill="black"/>
<path d="M61.0146 22.9011C59.5993 22.8623 58.5856 22.5127 57.9735 21.8522C57.3615 21.1724 57.0554 20.1041 57.0554 18.6472V0.437044L59.5228 0V18.7055C59.5228 19.3854 59.6567 19.8807 59.9244 20.1915C60.1922 20.4828 60.6608 20.6868 61.3302 20.8033L61.0146 22.9011Z" fill="black"/>
<path d="M75.479 14.9761C75.479 16.1804 75.3738 17.2778 75.1634 18.2685C74.953 19.2397 74.6279 20.0749 74.188 20.7742C73.7672 21.4735 73.2221 22.0173 72.5526 22.4058C71.9023 22.7943 71.1277 22.9886 70.2288 22.9886C69.3298 22.9886 68.5456 22.7943 67.8762 22.4058C67.2068 22.0173 66.6521 21.4735 66.2122 20.7742C65.7914 20.0749 65.4758 19.2397 65.2654 18.2685C65.055 17.2778 64.9498 16.1804 64.9498 14.9761C64.9498 13.7912 65.055 12.7034 65.2654 11.7128C65.4758 10.7222 65.7914 9.87721 66.2122 9.17794C66.6521 8.45924 67.2068 7.90565 67.8762 7.51717C68.5456 7.12868 69.3298 6.93444 70.2288 6.93444C71.1277 6.93444 71.9023 7.12868 72.5526 7.51717C73.2221 7.90565 73.7672 8.45924 74.188 9.17794C74.6279 9.87721 74.953 10.7222 75.1634 11.7128C75.3738 12.7034 75.479 13.7912 75.479 14.9761ZM72.8969 14.9761C72.8969 14.1214 72.8491 13.3444 72.7535 12.6452C72.6578 11.9265 72.5048 11.3146 72.2944 10.8096C72.084 10.2851 71.8067 9.88692 71.4624 9.61498C71.1181 9.32362 70.7069 9.17794 70.2288 9.17794C69.7315 9.17794 69.3107 9.32362 68.9664 9.61498C68.6413 9.88692 68.3639 10.2851 68.1344 10.8096C67.924 11.3146 67.771 11.9265 67.6754 12.6452C67.5797 13.3444 67.5319 14.1214 67.5319 14.9761C67.5319 15.8307 67.5797 16.6174 67.6754 17.3361C67.771 18.0354 67.924 18.6375 68.1344 19.1426C68.3639 19.6476 68.6413 20.0458 68.9664 20.3371C69.3107 20.6091 69.7315 20.7451 70.2288 20.7451C70.7069 20.7451 71.1181 20.6091 71.4624 20.3371C71.8067 20.0458 72.084 19.6476 72.2944 19.1426C72.5048 18.6375 72.6578 18.0354 72.7535 17.3361C72.8491 16.6174 72.8969 15.8307 72.8969 14.9761Z" fill="black"/>
<path d="M83.2508 20.308C83.8055 20.6188 84.3984 20.7742 85.0295 20.7742C85.5077 20.7742 85.9285 20.6771 86.2919 20.4828C86.6553 20.2886 86.9613 19.9681 87.21 19.5213C87.4777 19.0746 87.6786 18.4821 87.8125 17.744C87.9463 17.0059 88.0133 16.093 88.0133 15.0052C88.0133 12.9074 87.7455 11.4117 87.21 10.5182C86.6936 9.60527 85.8615 9.1488 84.714 9.1488C84.5036 9.1488 84.274 9.16823 84.0254 9.20708C83.7768 9.2265 83.5186 9.27506 83.2508 9.35276V20.308ZM83.2508 28H80.7835V7.72112C81.319 7.48803 81.9215 7.3035 82.5909 7.16753C83.2795 7.01214 83.9776 6.93444 84.6853 6.93444C85.7372 6.93444 86.6362 7.11897 87.3821 7.48803C88.1472 7.85709 88.7592 8.39126 89.2183 9.09053C89.6964 9.77038 90.0407 10.6153 90.2511 11.6254C90.4806 12.616 90.5954 13.7523 90.5954 15.0343C90.5954 17.6178 90.1841 19.5893 89.3617 20.949C88.5584 22.3087 87.2387 22.9886 85.4025 22.9886C84.9626 22.9886 84.5705 22.94 84.2262 22.8429C83.882 22.7652 83.5568 22.6486 83.2508 22.4932V28Z" fill="black"/>
<path d="M95.9258 7.75026C96.5953 7.53659 97.3221 7.36177 98.1063 7.22581C98.8904 7.07041 99.6077 6.99272 100.258 6.99272C100.927 6.99272 101.53 7.08012 102.065 7.25494C102.62 7.42976 103.108 7.72112 103.529 8.12903C104.026 7.79882 104.561 7.52688 105.135 7.31321C105.709 7.09955 106.34 6.99272 107.029 6.99272C107.717 6.99272 108.339 7.09955 108.894 7.31321C109.467 7.50746 109.955 7.84738 110.357 8.33299C110.758 8.81859 111.074 9.47901 111.304 10.3143C111.533 11.1301 111.648 12.1498 111.648 13.3736V22.6098H109.181V13.5775C109.181 12.0624 109.008 10.9553 108.664 10.256C108.32 9.55671 107.67 9.20708 106.713 9.20708C106.35 9.20708 105.977 9.27506 105.594 9.41103C105.231 9.547 104.887 9.73153 104.561 9.96462C104.714 10.4114 104.829 10.9164 104.906 11.4797C104.982 12.043 105.02 12.6743 105.02 13.3736V22.6098H102.553V13.5775C102.553 12.0624 102.381 10.9553 102.037 10.256C101.692 9.55671 101.042 9.20708 100.086 9.20708C99.5886 9.20708 99.0243 9.3042 98.3932 9.49844V22.6098H95.9258V7.75026Z" fill="black"/>
<path d="M119.372 15.7045C119.391 16.4426 119.458 17.1224 119.573 17.744C119.688 18.3462 119.87 18.8803 120.118 19.3465C120.386 19.7933 120.73 20.1429 121.151 20.3954C121.591 20.6479 122.146 20.7742 122.815 20.7742C123.37 20.7742 123.877 20.6965 124.336 20.5411C124.814 20.3663 125.158 20.2206 125.368 20.1041L125.828 22.1145C125.579 22.2893 125.158 22.4738 124.565 22.6681C123.991 22.8817 123.303 22.9886 122.5 22.9886C121.448 22.9886 120.558 22.7943 119.831 22.4058C119.124 22.0173 118.54 21.4735 118.081 20.7742C117.641 20.0749 117.326 19.2397 117.135 18.2685C116.943 17.2973 116.848 16.2289 116.848 15.0635C116.848 12.247 117.307 10.188 118.225 8.88658C119.143 7.58515 120.357 6.93444 121.868 6.93444C123.571 6.93444 124.776 7.58515 125.483 8.88658C126.191 10.188 126.545 12.0139 126.545 14.3642C126.545 14.5779 126.545 14.8012 126.545 15.0343C126.545 15.248 126.535 15.4714 126.516 15.7045H119.372ZM121.868 9.06139C121.046 9.06139 120.443 9.47901 120.061 10.3143C119.697 11.1495 119.478 12.2664 119.401 13.6649H123.963C123.963 12.247 123.819 11.1301 123.532 10.3143C123.245 9.47901 122.691 9.06139 121.868 9.06139Z" fill="black"/>
<path d="M131.897 7.75026C132.604 7.53659 133.37 7.36177 134.192 7.22581C135.014 7.07041 135.77 6.99272 136.458 6.99272C137.204 6.99272 137.883 7.09955 138.495 7.31321C139.107 7.50746 139.624 7.84738 140.045 8.33299C140.485 8.81859 140.819 9.47901 141.049 10.3143C141.297 11.1301 141.422 12.1498 141.422 13.3736V22.6098H138.954V13.5775C138.954 12.0624 138.763 10.9553 138.381 10.256C137.998 9.55671 137.281 9.20708 136.229 9.20708C135.674 9.20708 135.053 9.3042 134.364 9.49844V22.6098H131.897V7.75026Z" fill="black"/>
<path d="M149.754 7.31321H153.541V9.4693H149.754V17.8897C149.754 18.9386 149.936 19.6767 150.299 20.1041C150.682 20.512 151.188 20.7159 151.82 20.7159C152.145 20.7159 152.451 20.6674 152.738 20.5702C153.044 20.4731 153.302 20.3566 153.512 20.2206L154 22.231C153.216 22.6972 152.384 22.9303 151.504 22.9303C150.089 22.9303 149.027 22.5321 148.319 21.7357C147.631 20.9199 147.287 19.5796 147.287 17.7149V3.20499L149.754 2.76795V7.31321Z" fill="black"/>
</svg>
